<mxfile host="app.diagrams.net" modified="2024-04-10T15:07:42.700Z" agent="Mozilla/5.0 (Windows NT 10.0; Win64; x64) AppleWebKit/537.36 (KHTML, like Gecko) Chrome/123.0.0.0 Safari/537.36" etag="k1uZpBVti3s6sZFUfthG" version="24.2.2" type="device">
  <diagram id="bc47vRQSer-DN1HRI0ml" name="Page-1">
    <mxGraphModel dx="882" dy="578" grid="1" gridSize="10" guides="1" tooltips="1" connect="1" arrows="1" fold="1" page="1" pageScale="1" pageWidth="850" pageHeight="1100" math="0" shadow="0">
      <root>
        <mxCell id="0" />
        <mxCell id="1" parent="0" />
        <mxCell id="qVao4xbg_2WPCuzyOfFB-2" value="" style="swimlane;startSize=0;" parent="1" vertex="1">
          <mxGeometry x="280" y="40" width="200" height="240" as="geometry" />
        </mxCell>
        <mxCell id="uFdhozR7a8qt9g8662nj-11" style="edgeStyle=orthogonalEdgeStyle;rounded=0;orthogonalLoop=1;jettySize=auto;html=1;exitX=0.5;exitY=1;exitDx=0;exitDy=0;entryX=0.5;entryY=0;entryDx=0;entryDy=0;" edge="1" parent="qVao4xbg_2WPCuzyOfFB-2" source="qVao4xbg_2WPCuzyOfFB-3" target="qVao4xbg_2WPCuzyOfFB-4">
          <mxGeometry relative="1" as="geometry" />
        </mxCell>
        <mxCell id="qVao4xbg_2WPCuzyOfFB-3" value="Buffer" style="rounded=1;whiteSpace=wrap;html=1;" parent="qVao4xbg_2WPCuzyOfFB-2" vertex="1">
          <mxGeometry x="40" y="40" width="120" height="60" as="geometry" />
        </mxCell>
        <mxCell id="qVao4xbg_2WPCuzyOfFB-4" value="Routing" style="rounded=1;whiteSpace=wrap;html=1;" parent="qVao4xbg_2WPCuzyOfFB-2" vertex="1">
          <mxGeometry x="40" y="160" width="120" height="60" as="geometry" />
        </mxCell>
        <mxCell id="qVao4xbg_2WPCuzyOfFB-8" value="Producer" style="text;html=1;align=center;verticalAlign=middle;whiteSpace=wrap;rounded=0;" parent="qVao4xbg_2WPCuzyOfFB-2" vertex="1">
          <mxGeometry x="120" width="80" height="30" as="geometry" />
        </mxCell>
        <mxCell id="uFdhozR7a8qt9g8662nj-1" value="" style="swimlane;startSize=0;" vertex="1" parent="1">
          <mxGeometry x="480" y="360" width="200" height="160" as="geometry" />
        </mxCell>
        <mxCell id="uFdhozR7a8qt9g8662nj-2" value="Topic A&lt;br&gt;Partition 1" style="rounded=1;whiteSpace=wrap;html=1;" vertex="1" parent="uFdhozR7a8qt9g8662nj-1">
          <mxGeometry x="40" y="40" width="120" height="60" as="geometry" />
        </mxCell>
        <mxCell id="uFdhozR7a8qt9g8662nj-3" value="Broker 2" style="text;html=1;align=center;verticalAlign=middle;whiteSpace=wrap;rounded=0;" vertex="1" parent="uFdhozR7a8qt9g8662nj-1">
          <mxGeometry x="120" y="130" width="80" height="30" as="geometry" />
        </mxCell>
        <mxCell id="uFdhozR7a8qt9g8662nj-4" value="" style="swimlane;startSize=0;" vertex="1" parent="1">
          <mxGeometry x="90" y="360" width="200" height="160" as="geometry" />
        </mxCell>
        <mxCell id="uFdhozR7a8qt9g8662nj-5" value="Topic A&lt;br&gt;Partition 1" style="rounded=1;whiteSpace=wrap;html=1;" vertex="1" parent="uFdhozR7a8qt9g8662nj-4">
          <mxGeometry x="40" y="40" width="120" height="60" as="geometry" />
        </mxCell>
        <mxCell id="uFdhozR7a8qt9g8662nj-6" value="Broker 1" style="text;html=1;align=center;verticalAlign=middle;whiteSpace=wrap;rounded=0;" vertex="1" parent="uFdhozR7a8qt9g8662nj-4">
          <mxGeometry x="120" y="130" width="80" height="30" as="geometry" />
        </mxCell>
        <mxCell id="uFdhozR7a8qt9g8662nj-7" style="edgeStyle=orthogonalEdgeStyle;rounded=0;orthogonalLoop=1;jettySize=auto;html=1;exitX=0;exitY=0.5;exitDx=0;exitDy=0;" edge="1" parent="1" source="qVao4xbg_2WPCuzyOfFB-4" target="uFdhozR7a8qt9g8662nj-5">
          <mxGeometry relative="1" as="geometry" />
        </mxCell>
        <mxCell id="uFdhozR7a8qt9g8662nj-8" style="edgeStyle=orthogonalEdgeStyle;rounded=0;orthogonalLoop=1;jettySize=auto;html=1;exitX=0.5;exitY=0;exitDx=0;exitDy=0;entryX=0;entryY=0.5;entryDx=0;entryDy=0;" edge="1" parent="1" source="uFdhozR7a8qt9g8662nj-5" target="qVao4xbg_2WPCuzyOfFB-4">
          <mxGeometry relative="1" as="geometry" />
        </mxCell>
        <mxCell id="uFdhozR7a8qt9g8662nj-9" style="edgeStyle=orthogonalEdgeStyle;rounded=0;orthogonalLoop=1;jettySize=auto;html=1;exitX=1;exitY=0.5;exitDx=0;exitDy=0;entryX=0;entryY=0.5;entryDx=0;entryDy=0;" edge="1" parent="1" source="uFdhozR7a8qt9g8662nj-5" target="uFdhozR7a8qt9g8662nj-2">
          <mxGeometry relative="1" as="geometry" />
        </mxCell>
        <mxCell id="uFdhozR7a8qt9g8662nj-10" style="edgeStyle=orthogonalEdgeStyle;rounded=0;orthogonalLoop=1;jettySize=auto;html=1;exitX=0;exitY=0.5;exitDx=0;exitDy=0;" edge="1" parent="1" source="uFdhozR7a8qt9g8662nj-2" target="uFdhozR7a8qt9g8662nj-5">
          <mxGeometry relative="1" as="geometry" />
        </mxCell>
      </root>
    </mxGraphModel>
  </diagram>
</mxfile>
